<svg xmlns="http://www.w3.org/2000/svg" xmlns:xlink="http://www.w3.org/1999/xlink" width="276px" height="94px" viewBox="0 0 276 94" version="1.1">
    <!-- Generator: Sketch 39.1 (31720) - http://www.bohemiancoding.com/sketch -->
    <desc>Created with Sketch.</desc>
    <defs>
        <linearGradient x1="-15.520937%" y1="18.3336646%" x2="51.1405564%" y2="41.4915528%" id="linearGradient-1">
            <stop stop-color="#BB20D2" offset="0%"/>
            <stop stop-color="#291D6D" offset="100%"/>
        </linearGradient>
        <linearGradient x1="-47.7561955%" y1="17.6577246%" x2="100.709599%" y2="93.3876647%" id="linearGradient-2">
            <stop stop-color="#BB20D2" offset="0%"/>
            <stop stop-color="#291D6D" offset="100%"/>
        </linearGradient>
        <linearGradient x1="-170.684831%" y1="82.8945378%" x2="77.0300165%" y2="45.6061625%" id="linearGradient-3">
            <stop stop-color="#BB20D2" offset="0%"/>
            <stop stop-color="#291D6D" offset="100%"/>
        </linearGradient>
    </defs>
    <g id="logo" stroke="none" stroke-width="1" fill="none" fill-rule="evenodd">
        <g id="Group" transform="translate(101.000000, 7.000000)" fill="#BB20D2">
            <path d="M159.8,18.3 C159.8,14.3 163.2,10.9 167.2,10.9 C171.2,10.9 174.6,14.3 174.6,18.3 C174.6,22.3 171.2,25.7 167.2,25.7 C163.2,25.7 159.8,22.3 159.8,18.3 L159.8,18.3 Z" id="Shape"/>
            <g id="Shape">
                <path d="M94,19.8 L94,70.2 L106.3,70.2 L106.3,0.9 C102.9,3.7 95.8,12.8 94.2,18.3 C94.1,18.8 94,19.3 94,19.8 L94,19.8 Z"/>
                <path d="M38.3,30.5 C35.8,30.5 33.4,30 31.2,29.2 L22.7,55.2 L14.2,29.4 C12.1,30.2 9.9,30.6 7.5,30.6 C5.1,30.6 2.7,30.2 0.5,29.3 L15.6,70.2 L29.5,70.2 L44.6,29.4 C42.7,30.1 40.6,30.5 38.3,30.5 L38.3,30.5 Z"/>
                <path d="M81.5,30.5 C79.3,30.5 77.2,30.1 75.3,29.5 L75.3,51.7 C75.3,57.5 72.2,60.1 67.7,60.1 C63.8,60.1 60.6,57.7 60.6,52.6 L60.6,29.4 C58.6,30.1 56.4,30.5 54.1,30.5 C52.1,30.5 50.1,30.2 48.3,29.6 L48.3,54.5 C48.3,65.6 55.4,71.5 63.6,71.5 C69,71.5 73.1,69.5 75.3,66.5 L75.3,70.4 L87.6,70.4 L87.6,29.5 C85.6,30.1 83.6,30.5 81.5,30.5 L81.5,30.5 Z"/>
                <path d="M137.2,28.2 C131.7,28.2 127.7,30.1 125,33.2 L125,29.5 C123.1,30.1 121,30.5 118.9,30.5 C116.7,30.5 114.7,30.2 112.7,29.5 L112.7,86.8 L125,86.8 L125,66.5 C127.7,69.6 131.7,71.5 137.2,71.5 C147.9,71.5 156.8,62.1 156.8,49.8 C156.8,37.5 147.9,28.2 137.2,28.2 L137.2,28.2 Z M134.7,59.9 C129,59.9 124.9,56 124.9,49.9 C124.9,43.7 129,39.9 134.7,39.9 C140.4,39.9 144.5,43.8 144.5,49.9 C144.5,56 140.4,59.9 134.7,59.9 L134.7,59.9 Z"/>
                <path d="M167.3,30.5 C165.2,30.5 163.1,30.2 161.1,29.5 L161.1,70.2 L173.4,70.2 L173.4,29.5 C171.5,30.1 169.4,30.5 167.3,30.5 L167.3,30.5 Z"/>
            </g>
        </g>
        <g id="Group">
            <path d="M43.1,83.7 L0.4,40.4 C0.4,40.4 27.2,9.8 61,3.2 C60.4,18.9 68.7,26.2 68.7,26.2 C68.7,26.2 42.4,46.9 43.1,83.7 L43.1,83.7 Z" id="Shape" fill="url(#linearGradient-1)"/>
            <path d="M43.1,83.7 C43.1,83.7 59.4,62.1 43.1,40.8 C26,18.5 43.1,0.2 43.1,0.2 C43.1,0.2 52.2,25.7 92.8,35.1 C59.2,54.4 43.1,83.7 43.1,83.7" id="Shape" fill="url(#linearGradient-2)"/>
            <path d="M36.7,12.3 C36.7,12.3 18.8,50 43.1,83.7 C43.1,83.7 59.4,62.1 43.1,40.8 C34.6,29.7 34.6,19.6 36.7,12.3" id="Shape" fill="url(#linearGradient-3)"/>
        </g>
    </g>
</svg>